<?xml version="1.0" standalone="no"?>
<!DOCTYPE svg PUBLIC "-//W3C//DTD SVG 20010904//EN"
 "http://www.w3.org/TR/2001/REC-SVG-20010904/DTD/svg10.dtd">
<svg version="1.0" xmlns="http://www.w3.org/2000/svg"
 width="1080.000000pt" height="1080.000000pt" viewBox="0 0 1080.000000 1080.000000"
 preserveAspectRatio="xMidYMid meet">

<g transform="translate(0.000000,1080.000000) scale(0.100000,-0.100000)"
fill="#000000" stroke="none">
<path d="M7403 8392 c-7 -4 -11 -26 -10 -51 l2 -43 -100 -52 c-55 -28 -99 -54
-97 -58 1 -5 3 -34 4 -65 1 -41 2 -47 5 -23 5 40 16 50 56 50 l27 0 0 -84 c0
-90 -4 -95 -66 -96 -19 0 -20 -5 -19 -62 1 -37 -3 -67 -9 -71 -7 -6 -4 -7 7
-3 10 3 124 6 253 6 157 0 233 3 229 10 -4 6 -11 8 -16 5 -5 -4 -9 15 -9 43 0
42 3 50 18 47 9 -1 11 0 4 2 -10 4 -13 34 -11 130 l2 125 -69 34 c-38 18 -74
33 -80 34 -6 0 -24 10 -39 21 -23 19 -26 27 -20 57 4 24 2 38 -7 43 -16 11
-39 11 -55 1z m157 -322 c0 -79 -2 -90 -17 -90 -37 0 -61 13 -68 33 l-8 22 -4
-21 c-5 -25 -24 -30 -103 -30 l-55 1 -3 74 c-2 41 -1 80 2 88 4 10 35 13 131
13 l125 0 0 -90z m90 -10 c0 -97 -2 -100 -54 -80 -25 9 -26 13 -26 90 l0 80
40 0 40 0 0 -90z"/>
<path d="M7746 7921 c23 -10 44 -27 48 -36 3 -10 9 -15 12 -12 11 11 -16 45
-40 51 -13 3 -32 8 -43 11 -10 3 0 -3 23 -14z"/>
<path d="M7063 7850 c0 -25 2 -35 4 -22 2 12 2 32 0 45 -2 12 -4 2 -4 -23z"/>
<path d="M7505 7800 c-7 -11 172 -7 183 4 3 3 -36 6 -86 6 -50 0 -94 -5 -97
-10z"/>
<path d="M7196 7605 c4 -8 7 -15 9 -15 2 0 5 7 9 15 3 9 0 15 -9 15 -9 0 -12
-6 -9 -15z"/>
<path d="M7193 7505 c0 -27 2 -38 4 -22 2 15 2 37 0 50 -2 12 -4 0 -4 -28z"/>
<path d="M7755 7120 c-7 -12 25 -333 36 -353 8 -15 1 -28 -34 -67 -44 -49 -54
-74 -83 -217 -4 -19 -11 -23 -42 -23 -37 0 -112 -40 -112 -60 0 -6 -5 -10 -12
-10 -6 0 -26 -11 -44 -25 -18 -14 -43 -25 -56 -24 -22 0 -22 1 -3 9 14 6 0 8
-45 8 -56 -1 -59 -2 -25 -7 l40 -7 -40 -7 c-22 -4 -58 -11 -80 -15 -26 -4 -40
-12 -40 -22 0 -19 -45 -26 -56 -8 -6 10 -19 3 -51 -28 -38 -36 -50 -42 -103
-48 -33 -3 -89 -10 -125 -15 -36 -6 -119 -17 -185 -25 -66 -9 -124 -17 -130
-18 -5 -2 208 -5 475 -8 423 -4 479 -7 441 -18 -100 -30 -31 -34 469 -27 l493
8 -6 206 c-5 168 -11 234 -35 357 -16 83 -32 156 -37 164 -4 7 -59 37 -121 66
-101 48 -117 59 -152 107 -22 29 -55 67 -75 83 -34 31 -36 31 -146 32 -61 0
-113 -3 -116 -8z m172 -246 c-2 -2 -12 -1 -22 3 -18 6 -18 7 1 13 17 7 33 -5
21 -16z m23 -119 c0 -8 -7 -15 -16 -15 -14 0 -14 3 -4 15 7 8 14 15 16 15 2 0
4 -7 4 -15z m-70 -355 c0 -5 -8 -10 -17 -10 -15 0 -16 2 -3 10 19 12 20 12 20
0z m-240 -210 c-24 -15 -37 -11 -16 5 11 8 22 12 25 9 3 -3 -1 -9 -9 -14z"/>
<path d="M7153 7035 c0 -22 2 -30 4 -17 2 12 2 30 0 40 -3 9 -5 -1 -4 -23z"/>
<path d="M6991 6815 c-88 -44 -110 -63 -106 -86 5 -27 -23 -36 -40 -13 -12 18
-15 16 -34 -29 -23 -54 -99 -155 -131 -175 -12 -7 -40 -15 -62 -17 -55 -5 -98
-24 -98 -42 0 -12 -7 -14 -29 -10 -25 5 -34 0 -69 -41 -31 -38 -54 -53 -108
-74 -38 -14 -87 -29 -108 -34 -22 -5 -41 -15 -44 -21 -3 -10 85 -13 420 -13
233 0 429 4 436 9 13 8 15 21 47 376 18 205 18 205 3 204 -7 -1 -42 -16 -77
-34z"/>
<path d="M1707 6013 c-4 -3 -7 -386 -7 -850 l0 -843 3395 0 3395 0 0 850 0
850 -3388 0 c-1864 0 -3392 -3 -3395 -7z m6708 -848 l0 -770 -3315 0 -3315 0
-3 773 -2 772 3317 -2 3318 -3 0 -770z"/>
<path d="M5250 5791 c-71 -23 -130 -72 -149 -124 -6 -16 -11 -57 -11 -91 0
-110 48 -157 215 -207 56 -17 111 -39 123 -48 34 -26 37 -64 9 -96 -20 -24
-33 -29 -83 -32 -76 -5 -118 18 -135 77 l-12 40 -72 0 -72 0 8 -49 c20 -125
101 -191 245 -199 182 -10 284 71 284 223 0 124 -50 175 -218 222 -105 30
-139 47 -147 73 -9 27 18 68 53 81 64 25 152 -17 152 -72 0 -17 7 -19 71 -19
l72 0 -7 48 c-14 105 -101 173 -229 178 -40 2 -83 0 -97 -5z"/>
<path d="M2989 5788 c-1 -2 -29 -160 -63 -353 l-62 -350 74 -3 c41 -2 76 -1
78 1 2 2 20 107 39 232 20 126 37 231 39 232 2 2 30 -101 63 -229 l60 -233 71
-3 71 -3 10 38 c5 21 30 119 56 218 25 99 49 189 53 199 5 12 20 -59 41 -200
18 -120 35 -227 37 -236 5 -15 17 -18 80 -18 52 0 74 4 74 12 0 13 -106 635
-115 676 -5 21 -10 22 -89 22 l-84 0 -21 -77 c-11 -43 -40 -151 -63 -240 -24
-90 -46 -163 -49 -163 -3 0 -34 108 -69 240 l-63 240 -84 0 c-45 0 -83 -1 -84
-2z"/>
<path d="M4021 5678 c-22 -62 -81 -222 -129 -355 l-89 -243 78 0 78 0 22 70
23 71 121 -3 120 -3 21 -65 20 -65 77 -3 c42 -2 77 0 77 4 0 4 -57 164 -127
355 l-128 349 -61 0 -62 0 -41 -112z m175 -310 c5 -16 -3 -18 -70 -18 -42 0
-76 4 -76 8 0 5 16 60 37 123 l36 114 34 -105 c18 -58 36 -113 39 -122z"/>
<path d="M4440 5720 l0 -70 95 0 95 0 0 -285 0 -285 70 0 70 0 0 285 0 285 90
0 90 0 0 70 0 70 -255 0 -255 0 0 -70z"/>
<path d="M5752 5523 c3 -185 8 -277 17 -298 45 -109 119 -155 248 -155 129 0
192 36 239 135 23 49 24 57 24 318 l0 267 -70 0 -70 0 0 -237 c0 -207 -2 -243
-18 -273 -32 -63 -130 -78 -187 -27 -36 32 -45 97 -45 333 l0 204 -71 0 -71 0
4 -267z"/>
<path d="M6460 5435 l0 -355 70 0 70 0 0 121 c0 66 4 118 9 115 4 -3 39 -57
77 -121 l69 -115 87 0 c49 0 88 2 88 5 0 3 -39 59 -86 126 -47 66 -84 121 -82
123 75 47 88 60 109 102 46 97 35 210 -29 285 -53 61 -79 69 -242 69 l-140 0
0 -355z m277 201 c32 -38 32 -114 0 -151 -19 -23 -32 -27 -77 -28 l-55 -2 -3
94 c-1 52 0 101 3 109 4 11 18 13 57 10 40 -4 57 -11 75 -32z"/>
<path d="M7060 5435 l0 -355 70 0 70 0 0 355 0 355 -70 0 -70 0 0 -355z"/>
<path d="M3981 4833 c0 -12 -9 -24 -18 -26 -10 -3 2 -5 27 -4 25 0 35 2 23 4
-13 2 -24 13 -26 26 l-4 22 -2 -22z"/>
<path d="M5061 4820 c-4 -3 -4 -18 0 -35 l7 -30 1 27 c1 27 1 27 89 30 l87 3
-89 5 c-48 3 -91 3 -95 0z"/>
<path d="M4988 4803 c12 -2 30 -2 40 0 9 3 -1 5 -23 4 -22 0 -30 -2 -17 -4z"/>
<path d="M5734 4796 c-17 -8 -40 -26 -52 -41 -34 -43 -26 -49 11 -9 17 19 50
41 72 49 22 8 31 14 20 14 -11 0 -34 -6 -51 -13z"/>
<path d="M3896 4779 c-14 -11 -31 -30 -37 -42 -7 -15 -2 -11 17 10 16 17 38
36 49 42 11 6 15 11 9 11 -6 0 -23 -9 -38 -21z"/>
<path d="M4912 4784 c-12 -8 -22 -20 -22 -26 0 -7 6 -4 13 5 6 9 23 21 37 26
14 5 18 10 10 10 -9 1 -26 -6 -38 -15z"/>
<path d="M4785 4743 c-11 -85 -14 -93 -38 -94 -17 -1 -18 -2 -4 -6 18 -5 21
-13 10 -29 -5 -5 0 -1 10 9 16 19 17 17 19 -34 0 -30 4 2 8 71 8 132 6 164 -5
83z"/>
<path d="M4302 4750 c0 -19 2 -27 5 -17 2 9 2 25 0 35 -3 9 -5 1 -5 -18z"/>
<path d="M5152 4686 l-2 -99 26 29 c27 28 27 28 35 6 10 -26 37 -29 65 -6 18
15 18 15 -3 5 -33 -17 -50 -13 -56 11 -6 20 -7 20 -31 5 l-25 -17 -4 83 -3 82
-2 -99z"/>
<path d="M3972 4682 c-2 -76 -5 -97 -20 -110 -10 -10 -12 -13 -4 -8 9 7 16 5
23 -5 7 -12 9 -11 9 3 0 9 8 22 18 28 15 11 15 11 0 6 -15 -4 -18 5 -21 87
l-3 92 -2 -93z"/>
<path d="M2015 4741 c-65 -28 -82 -118 -32 -168 22 -22 37 -28 72 -28 126 0
139 184 14 200 -18 3 -43 1 -54 -4z"/>
<path d="M4091 4734 c0 -11 3 -14 6 -6 3 7 2 16 -1 19 -3 4 -6 -2 -5 -13z"/>
<path d="M5053 4680 c0 -41 2 -58 4 -37 2 20 2 54 0 75 -2 20 -4 3 -4 -38z"/>
<path d="M8094 4741 c-34 -15 -64 -60 -64 -98 0 -27 8 -43 35 -70 32 -32 40
-35 77 -30 59 8 93 45 93 102 0 34 -6 50 -26 70 -27 28 -82 40 -115 26z"/>
<path d="M4070 4695 c-7 -8 -27 -16 -44 -16 l-31 -2 30 -4 c17 -3 39 -12 50
-21 20 -17 20 -16 3 4 -17 19 -17 21 -1 37 10 9 15 17 11 17 -3 0 -11 -7 -18
-15z"/>
<path d="M3841 4684 c0 -11 3 -14 6 -6 3 7 2 16 -1 19 -3 4 -6 -2 -5 -13z"/>
<path d="M2210 4655 c0 -13 83 -15 690 -15 607 0 690 2 690 15 0 13 -83 15
-690 15 -607 0 -690 -2 -690 -15z"/>
<path d="M6600 4655 c0 -13 83 -15 690 -15 607 0 690 2 690 15 0 13 -83 15
-690 15 -607 0 -690 -2 -690 -15z"/>
<path d="M3850 4653 c0 -6 8 -17 18 -24 16 -13 16 -13 2 6 -8 11 -16 22 -17
24 -2 2 -3 0 -3 -6z"/>
<path d="M6414 4648 c-4 -6 3 -19 16 -30 l22 -18 -23 -1 c-13 0 -18 -3 -11 -6
7 -3 20 -2 30 2 15 5 14 9 -8 26 -21 16 -23 20 -10 29 9 6 10 10 3 10 -6 0
-15 -5 -19 -12z"/>
<path d="M4177 4636 c-4 -9 0 -13 11 -12 9 2 18 8 20 14 5 17 -25 15 -31 -2z"/>
<path d="M4359 4628 c9 -25 37 -36 53 -20 6 6 0 8 -16 5 -19 -4 -26 -1 -26 10
0 9 -4 19 -10 22 -6 4 -7 -2 -1 -17z"/>
<path d="M4452 4630 c0 -14 2 -19 5 -12 2 6 2 18 0 25 -3 6 -5 1 -5 -13z"/>
<path d="M4619 4628 c10 -29 31 -33 56 -13 20 16 19 16 -2 6 -30 -15 -43 -14
-43 3 0 8 -4 18 -10 21 -6 4 -7 -2 -1 -17z"/>
<path d="M6028 4643 c6 -2 9 -10 6 -15 -4 -7 -2 -8 5 -4 13 9 5 26 -12 25 -9
0 -8 -2 1 -6z"/>
<path d="M6187 4630 c3 -11 10 -23 15 -26 14 -9 58 5 58 18 0 9 -3 9 -12 0
-17 -17 -48 -15 -48 2 0 8 -4 17 -9 20 -5 4 -7 -3 -4 -14z"/>
<path d="M6297 4643 c-10 -10 -8 -41 3 -48 6 -3 7 1 4 9 -3 9 -1 16 5 16 6 0
11 7 11 15 0 16 -12 20 -23 8z"/>
<path d="M4316 4625 c-10 -7 -16 -18 -15 -23 2 -6 12 1 22 14 21 27 19 29 -7
9z"/>
<path d="M4560 4622 c0 -12 3 -12 18 -1 9 7 19 14 21 16 2 1 -6 1 -18 0 -11
-1 -21 -8 -21 -15z"/>
<path d="M4711 4624 c0 -11 3 -14 6 -6 3 7 2 16 -1 19 -3 4 -6 -2 -5 -13z"/>
<path d="M5450 4625 c-14 -8 -20 -14 -14 -15 5 0 19 7 30 15 24 18 16 19 -16
0z"/>
<path d="M6130 4618 c0 -17 1 -17 20 -1 11 10 20 18 20 18 0 0 -9 1 -20 1 -12
0 -20 -7 -20 -18z"/>
<path d="M4075 4620 c-18 -8 -17 -9 8 -9 16 -1 26 3 22 9 -3 6 -7 10 -8 9 -1
0 -11 -4 -22 -9z"/>
<path d="M4128 4623 c7 -3 16 -2 19 1 4 3 -2 6 -13 5 -11 0 -14 -3 -6 -6z"/>
<path d="M4241 4610 c-13 -11 -19 -20 -14 -20 6 0 18 9 28 20 23 25 17 25 -14
0z"/>
<path d="M5965 4614 c-11 -8 -30 -13 -42 -11 -12 2 -20 0 -17 -4 9 -15 41 -10
65 11 28 23 23 26 -6 4z"/>
<path d="M5790 4609 c0 -4 -13 -12 -29 -19 -16 -6 -40 -24 -53 -38 l-23 -27
25 21 c24 21 83 54 95 54 14 0 2 -46 -17 -68 -22 -24 -23 -24 -2 -14 24 13 34
32 34 67 0 13 6 25 13 28 6 2 0 4 -15 3 -16 0 -28 -4 -28 -7z"/>
<path d="M6076 4605 c-11 -8 -15 -15 -9 -15 6 0 16 7 23 15 16 19 11 19 -14 0z"/>
<path d="M6354 4604 c-18 -14 -18 -15 4 -4 12 6 22 13 22 15 0 8 -5 6 -26 -11z"/>
<path d="M4028 4603 c7 -3 16 -2 19 1 4 3 -2 6 -13 5 -11 0 -14 -3 -6 -6z"/>
<path d="M5358 4593 c6 -2 18 -2 25 0 6 3 1 5 -13 5 -14 0 -19 -2 -12 -5z"/>
<path d="M5042 4550 c0 -19 2 -27 5 -17 2 9 2 25 0 35 -3 9 -5 1 -5 -18z"/>
<path d="M4057 4535 c-15 -14 -24 -25 -19 -25 5 0 19 11 32 25 30 32 23 32
-13 0z"/>
<path d="M3973 4503 c9 -2 25 -2 35 0 9 3 1 5 -18 5 -19 0 -27 -2 -17 -5z"/>
</g>
</svg>
